<svg width="36" height="16" viewBox="0 0 36 16" fill="none" xmlns="http://www.w3.org/2000/svg">
	<g clip-path="url(#clip0_1_3194)">
		<path
			d="M33.6 15.9999H2.4C1.76348 15.9999 1.15303 15.8313 0.702944 15.5313C0.252856 15.2312 0 14.8242 0 14.3999L0 7.66922H1.729L2.119 7.03989H2.992L3.381 7.66655H6.783V7.18989L7.087 7.66989H8.853L9.157 7.18189V7.66855H17.61V6.63922H17.77C17.884 6.64189 17.917 6.64855 17.917 6.77522V7.66989H22.29V7.43055C22.737 7.58189 23.264 7.67055 23.823 7.67055L23.918 7.66989H23.913H25.753L26.147 7.04322H27.02L27.405 7.66989H30.951V7.07389L31.487 7.66989H34.323V3.73389H31.516V4.19855L31.123 3.73389H28.237V4.19855L27.876 3.73389H23.979C23.3886 3.714 22.8003 3.795 22.27 3.96922L22.291 3.96322V3.73389H19.603V3.96322C19.2776 3.79226 18.8667 3.71047 18.454 3.73455H18.46H8.637L7.978 4.75122L7.301 3.73455H4.207V4.19922L3.866 3.73455H1.226L0.003 5.60122V1.60122C0.003 1.17687 0.255856 0.769908 0.705944 0.46985C1.15603 0.169792 1.76648 0.0012207 2.403 0.0012207H33.603C34.2395 0.0012207 34.85 0.169792 35.3001 0.46985C35.7501 0.769908 36.003 1.17687 36.003 1.60122V8.58789H34.13C34.1 8.58655 34.064 8.58655 34.029 8.58655C33.595 8.58655 33.192 8.67322 32.856 8.82189L32.864 8.81855V8.58789H30.094C29.6612 8.57195 29.2331 8.65393 28.879 8.82055L28.885 8.81789V8.58722H23.939V8.81789C23.5341 8.66566 23.0768 8.58617 22.612 8.58722H22.573H22.575H19.312V8.81789C18.8857 8.63584 18.3798 8.55482 17.876 8.58789L17.885 8.58722H14.234L13.398 9.18989L12.616 8.58722H7.162V12.5259H12.514L13.375 11.9139L14.186 12.5259H17.485V11.6039H17.945C18.3873 11.6154 18.8284 11.5662 19.241 11.4592L19.219 11.4646V12.5272H21.939V11.5012H22.07C22.236 11.5012 22.253 11.5052 22.253 11.6172V12.5279H30.519L30.62 12.5292C31.094 12.5292 31.536 12.4346 31.904 12.2726L31.895 12.2759V12.5279H34.517L34.642 12.5292C35.133 12.5292 35.6 12.4619 36.024 12.3399L36.001 12.3459V14.4006C36.001 14.8249 35.7481 15.2319 35.2981 15.5319C34.848 15.832 34.2375 16.0006 33.601 16.0006L33.6 15.9999ZM21.105 11.9739H20.087V9.15055H22.423C22.8449 9.12448 23.2697 9.1718 23.656 9.28789L23.64 9.28389C23.953 9.39855 24.162 9.61722 24.162 9.86789L24.16 9.91255V9.91055L24.161 9.93589C24.161 10.2599 23.868 10.5386 23.448 10.6599L23.44 10.6619C23.641 10.7099 23.809 10.7919 23.934 10.8979L23.936 10.8992C24.0772 11.055 24.1363 11.2378 24.104 11.4186L24.105 11.4146V11.9732H23.089V11.6199C23.1371 11.4275 23.0792 11.23 22.926 11.0639L22.929 11.0672C22.8234 11.0138 22.7027 10.9752 22.5742 10.9538C22.4456 10.9324 22.3118 10.9285 22.181 10.9426L22.187 10.9419H21.105V11.9732V11.9739ZM21.105 9.73389V10.3679H22.335C22.5087 10.3786 22.6835 10.3579 22.841 10.3079L22.835 10.3099C22.8993 10.2822 22.9523 10.2442 22.989 10.1994C23.0256 10.1545 23.0449 10.1043 23.045 10.0532L23.044 10.0379C23.049 9.98693 23.0321 9.93675 22.9955 9.89191C22.9589 9.84707 22.9039 9.81008 22.837 9.78522L22.835 9.78455C22.6832 9.73931 22.5165 9.72094 22.351 9.73122H22.355L21.105 9.73389ZM12.08 11.9732H8.073V9.15055H12.143L13.388 10.0759L14.675 9.15055H17.908C19.056 9.15055 19.614 9.45522 19.614 10.0806C19.614 10.7172 19.037 11.0266 17.854 11.0266H16.589V11.9726H14.622L13.376 11.0399L12.081 11.9732H12.08ZM15.581 9.45322L14.027 10.5666L15.581 11.7159V9.45322ZM9.082 10.8232V11.3846H11.57L12.72 10.5566L11.614 9.73389H9.081V10.2472H11.303V10.8226L9.082 10.8232ZM16.589 9.73455V10.4532H17.896C18.296 10.4532 18.526 10.3172 18.526 10.0799C18.526 9.85322 18.312 9.73389 17.907 9.73389L16.589 9.73455ZM34.627 11.9746H32.673V11.3679H34.619C34.7646 11.3813 34.9123 11.3559 35.03 11.2972L35.029 11.2979C35.0666 11.2747 35.0965 11.2465 35.117 11.2152C35.1375 11.1839 35.148 11.1501 35.148 11.1159V11.1052C35.1481 11.0715 35.1371 11.0381 35.1159 11.0075C35.0946 10.9769 35.0636 10.9497 35.025 10.9279C34.9215 10.878 34.7939 10.8557 34.667 10.8652H34.669L34.482 10.8612C33.568 10.8452 32.533 10.8266 32.533 9.99122C32.533 9.58455 32.915 9.15055 33.984 9.15055H36.001V9.75189H34.156C34.0135 9.74125 33.8695 9.76035 33.744 9.80655L33.748 9.80522C33.6986 9.82688 33.6589 9.85701 33.6331 9.89244C33.6072 9.92787 33.5961 9.96729 33.601 10.0066V10.0059V10.0132C33.601 10.0581 33.6223 10.1019 33.6618 10.1383C33.7013 10.1747 33.757 10.2018 33.821 10.2159L33.823 10.2166C33.9498 10.2426 34.0825 10.2535 34.215 10.2486H34.212L34.761 10.2579C35.1748 10.2304 35.5883 10.3125 35.912 10.4866L35.909 10.4852C35.939 10.5012 35.965 10.5186 35.988 10.5379L35.989 10.5386L36.001 11.6132C35.8328 11.7442 35.6189 11.8456 35.3781 11.9085C35.1372 11.9714 34.8769 11.9939 34.62 11.9739L34.627 11.9746ZM30.678 11.9746H28.706V11.3679H30.668C30.8148 11.3807 30.9634 11.3554 31.083 11.2972L31.081 11.2979C31.1183 11.2746 31.1481 11.2464 31.1684 11.2151C31.1887 11.1838 31.1991 11.15 31.199 11.1159V11.1092C31.199 11.0749 31.188 11.041 31.1668 11.0097C31.1455 10.9785 31.1146 10.9506 31.076 10.9279C30.9707 10.878 30.8414 10.8557 30.713 10.8652H30.715L30.529 10.8612C29.618 10.8452 28.584 10.8266 28.584 9.99122C28.584 9.58455 28.964 9.15055 30.031 9.15055H32.059V9.75189H30.203C30.0615 9.74136 29.9185 9.76047 29.794 9.80655L29.798 9.80522C29.7455 9.82932 29.7037 9.86243 29.677 9.90106C29.6504 9.93968 29.6399 9.98239 29.6467 10.0247C29.6534 10.0669 29.6772 10.1072 29.7155 10.1412C29.7537 10.1752 29.805 10.2017 29.864 10.2179L29.866 10.2186C29.9944 10.2448 30.1289 10.2557 30.263 10.2506H30.26L30.805 10.2599C31.221 10.2332 31.6363 10.3154 31.963 10.4892L31.96 10.4872C32.0699 10.568 32.1535 10.6631 32.2054 10.7664C32.2574 10.8698 32.2767 10.9793 32.262 11.0879V11.0846C32.265 11.6732 31.73 11.9732 30.675 11.9732L30.678 11.9746ZM28.1 11.9746H24.72V9.14989H28.097V9.73322H25.73V10.2466H28.042V10.8219H25.73V11.3832L28.1 11.3859V11.9726V11.9746ZM30.07 7.11722H28.009L27.615 6.48789H25.513L25.131 7.11722H23.947C23.4153 7.13591 22.8917 7.02422 22.475 6.80322L22.48 6.80522C22.282 6.65956 22.1318 6.488 22.0388 6.30148C21.9458 6.11496 21.9122 5.91756 21.94 5.72189L21.939 5.72722C21.9132 5.52794 21.9485 5.32725 22.0428 5.13735C22.137 4.94745 22.2881 4.7723 22.487 4.62255L22.485 4.62389C22.695 4.50148 22.9405 4.40919 23.2063 4.35276C23.4721 4.29633 23.7525 4.27697 24.03 4.29589L24.022 4.29522H25.002V4.89722H24.042C23.9015 4.88516 23.7588 4.8939 23.624 4.92282C23.4891 4.95175 23.3656 5.00014 23.262 5.06455L23.263 5.06389C23.0492 5.24643 22.9454 5.47564 22.972 5.70655V5.70322C22.9401 5.94047 23.0401 6.17725 23.253 6.36855L23.25 6.36589C23.4488 6.4742 23.7033 6.52636 23.959 6.51122H23.955H24.409L25.84 4.29122H27.36L29.073 6.95789V4.29122H30.614L32.392 6.25655V4.29122H33.432V7.11255H31.988L30.068 4.99389V7.11255L30.07 7.11722ZM26.571 4.77189L25.874 5.89722H27.271L26.571 4.77189ZM16.772 7.11589H15.76V4.29322H18.088C18.513 4.26382 18.9419 4.31198 19.329 4.43255L19.314 4.42855C19.4696 4.48593 19.5994 4.57005 19.6898 4.67216C19.7802 4.77427 19.8279 4.89065 19.828 5.00922L19.826 5.05589V5.05389V5.07455C19.8261 5.22852 19.7595 5.37924 19.6343 5.50861C19.509 5.63797 19.3305 5.7405 19.12 5.80389L19.112 5.80589C19.313 5.85655 19.482 5.93789 19.611 6.04189L19.613 6.04322C19.7557 6.19961 19.8146 6.38364 19.78 6.56522L19.781 6.56122V7.11522H18.76L18.756 6.75922V6.70589C18.7923 6.53182 18.7346 6.35481 18.593 6.20655L18.596 6.20989C18.4901 6.15801 18.3698 6.12064 18.2421 6.09993C18.1144 6.07922 17.9818 6.07558 17.852 6.08922L17.858 6.08855H16.773V7.11522L16.772 7.11589ZM16.772 4.88055V5.50722H18C18.1735 5.51977 18.3487 5.49895 18.505 5.44722L18.5 5.44855C18.5641 5.42259 18.617 5.38609 18.6538 5.34254C18.6906 5.29899 18.7099 5.24986 18.71 5.19989L18.709 5.18122C18.7141 5.13057 18.6968 5.08069 18.6593 5.0365C18.6218 4.99231 18.5657 4.95641 18.498 4.93322L18.496 4.93255C18.3438 4.88903 18.1781 4.87073 18.013 4.87922H18.016L16.772 4.88055ZM6.056 7.11589H4L3.611 6.48655H1.503L1.111 7.11589H0.011L1.824 4.29322H3.327L5.048 6.96455V4.29322H6.699L8.023 6.20722L9.24 4.29322H10.925V7.11455H9.885L9.883 4.90655L8.416 7.11522H7.528L6.057 4.90322V7.11522L6.056 7.11589ZM2.552 4.77189L1.863 5.89722H3.245L2.552 4.77189ZM21.44 7.11522H20.408V4.29322H21.441V7.11455L21.44 7.11522ZM15.054 7.11522H11.68V4.29322H15.06V4.87989H12.692V5.38855H15.003V5.96789H12.69V6.53189H15.058V7.11455L15.054 7.11522Z"
			fill="#161C24" />
	</g>
	<defs>
		<clipPath id="clip0_1_3194">
			<rect width="36" height="16" fill="white" />
		</clipPath>
	</defs>
</svg>
	