<svg width="52" height="24" viewBox="0 0 52 24" fill="none" xmlns="http://www.w3.org/2000/svg">
	<path
		d="M14.8724 7.052C14.4583 7.50231 13.7957 7.85762 13.1332 7.80681C13.0504 7.19794 13.3747 6.55088 13.7543 6.15125C14.1684 5.68825 14.8931 5.35838 15.4797 5.33301C15.5487 5.96732 15.2795 6.58894 14.8724 7.052ZM15.4728 7.92738C14.5135 7.87664 13.6922 8.42844 13.2367 8.42844C12.7744 8.42844 12.0773 7.95275 11.3182 7.96544C10.3313 7.97812 9.41341 8.49186 8.9096 9.31016C7.87438 10.9467 8.64048 13.3698 9.64113 14.7019C10.1311 15.3615 10.7178 16.0847 11.4907 16.0593C12.2223 16.0339 12.5121 15.6217 13.3955 15.6217C14.2858 15.6217 14.5411 16.0593 15.3141 16.0466C16.1146 16.0339 16.6184 15.387 17.1084 14.7272C17.6674 13.9788 17.8952 13.2493 17.909 13.2112C17.8952 13.1985 16.3631 12.6594 16.3493 11.0355C16.3355 9.67809 17.557 9.0311 17.6122 8.99304C16.922 8.05423 15.8455 7.95275 15.4728 7.92738ZM21.0146 6.08782V15.9769H22.6847V12.596H24.9967C27.1084 12.596 28.5923 11.264 28.5923 9.3356C28.5923 7.4073 27.136 6.08789 25.0519 6.08789H21.0146L21.0146 6.08782ZM22.6847 7.38187H24.6102C26.0595 7.38187 26.8876 8.09229 26.8876 9.34188C26.8876 10.5915 26.0595 11.3083 24.6033 11.3083H22.6847V7.38187ZM31.6427 16.0529C32.6917 16.0529 33.6647 15.5646 34.1064 14.7907H34.1409V15.9768H35.6869V11.0545C35.6869 9.62735 34.4446 8.70757 32.5329 8.70757C30.7593 8.70757 29.448 9.64003 29.3997 10.9213H30.9042C31.0284 10.3124 31.6426 9.91276 32.4846 9.91276C33.506 9.91276 34.0788 10.3504 34.0788 11.1561V11.7015L31.9946 11.8157C30.0553 11.9235 29.0064 12.653 29.0064 13.9217C29.0064 15.203 30.0898 16.0529 31.6427 16.0529ZM32.0912 14.8795C31.201 14.8795 30.635 14.4862 30.635 13.8836C30.635 13.262 31.1803 12.9004 32.2224 12.8433L34.0788 12.7355V13.2937C34.0788 14.2198 33.2231 14.8795 32.0913 14.8795H32.0912ZM37.7503 18.6663C39.3791 18.6663 40.1451 18.0955 40.8145 16.3638L43.7476 8.8027H42.0499L40.083 14.6447H40.0485L38.0816 8.8027H36.3356L39.1651 16.0022L39.0133 16.4399C38.758 17.182 38.3439 17.4675 37.6054 17.4675C37.4743 17.4675 37.219 17.4548 37.1154 17.4421V18.6283C37.212 18.6537 37.6261 18.6663 37.7503 18.6663Z"
		fill="#3366FF" />
	<rect x="0.738281" y="0.833008" width="50.5242" height="22.3333" stroke="white" />
</svg>
	