<svg width="39" height="34" viewBox="0 0 39 34" fill="none" xmlns="http://www.w3.org/2000/svg">
	<path
		d="M3.2644 16.9998C3.2644 11.7623 3.2644 9.14284 5.12818 7.51645C6.99037 5.88867 9.98958 5.88867 15.9864 5.88867H22.3474C28.3443 5.88867 31.3435 5.88867 33.2057 7.51645C35.0695 9.14284 35.0695 11.7623 35.0695 16.9998C35.0695 22.2373 35.0695 24.8567 33.2057 26.4831C31.3435 28.1109 28.3443 28.1109 22.3474 28.1109H15.9864C9.98958 28.1109 6.99037 28.1109 5.12818 26.4831C3.2644 24.8567 3.2644 22.2373 3.2644 16.9998Z"
		stroke="#3366FF" stroke-width="1.5" />
	<path d="M15.9864 22.5553H9.62542M22.3474 22.5553H19.9621M3.2644 14.2219H35.0695" stroke="#3366FF"
		stroke-width="1.5" stroke-linecap="round" />
</svg>
	