<svg width="75" height="11" viewBox="0 0 75 11" fill="none" xmlns="http://www.w3.org/2000/svg">
	<g clip-path="url(#clip0_1_3196)">
		<path
			d="M39.603 0.0466309C36.09 0.0466309 33.2397 2.44297 33.2397 5.40043C33.2397 8.5449 35.9663 10.8953 39.603 10.8953C43.1491 10.8953 45.949 8.51369 45.949 5.46221C45.949 2.42877 43.1679 0.0466309 39.603 0.0466309Z"
			fill="url(#paint0_linear_1_3196)" />
		<g filter="url(#filter0_i_1_3196)">
			<path
				d="M39.603 0.0466309C36.09 0.0466309 33.2397 2.44297 33.2397 5.40043C33.2397 8.5449 35.9663 10.8953 39.603 10.8953C43.1491 10.8953 45.949 8.51369 45.949 5.46221C45.949 2.42877 43.1679 0.0466309 39.603 0.0466309Z"
				fill="#161C24" />
		</g>
		<path
			d="M3.47847 0.241801H0.0576172V10.6603H3.4606C5.26616 10.6603 6.57192 10.2868 7.71743 9.45827C9.07651 8.47402 9.88247 6.98992 9.88247 5.45606C9.88247 2.38015 7.25088 0.241801 3.47847 0.241801ZM6.19897 8.06677C5.46348 8.64618 4.51646 8.89663 3.01147 8.89663H2.38628V2.00602H3.01147C4.51646 2.00602 5.42715 2.2406 6.19897 2.84918C7.00391 3.47414 7.48394 4.44188 7.48394 5.44122C7.48394 6.44273 7.00391 7.44424 6.19897 8.06677ZM10.9568 10.6603H13.2818V0.241801H10.9571V10.6603H10.9568ZM18.9736 4.23825C17.5763 3.78623 17.1651 3.48808 17.1651 2.92772C17.1651 2.27104 17.8972 1.77157 18.9008 1.77157C19.5985 1.77157 20.1709 2.02137 20.7811 2.6132L21.9961 1.22502C20.9942 0.457964 19.7958 0.0679755 18.4884 0.0679755C16.3793 0.0679755 14.7679 1.3496 14.7679 3.05077C14.7679 4.48921 15.5188 5.22275 17.7022 5.91192C18.6151 6.19165 19.0792 6.37827 19.3124 6.50579C19.7775 6.77145 20.0111 7.14507 20.0111 7.58213C20.0111 8.42708 19.2411 9.05101 18.2019 9.05101C17.0924 9.05101 16.1989 8.56726 15.6619 7.6613L14.1607 8.92809C15.2321 10.3009 16.5206 10.9122 18.2936 10.9122C20.7088 10.9122 22.4075 9.50431 22.4075 7.48965C22.4075 5.83338 21.6223 5.08295 18.9736 4.23825ZM23.1408 5.45618C23.1408 8.52147 25.897 10.8954 29.4405 10.8954C30.4423 10.8954 31.301 10.7225 32.3577 10.2867V7.89524C31.4261 8.70847 30.6028 9.03566 29.5467 9.03566C27.2035 9.03566 25.5384 7.55117 25.5384 5.44122C25.5384 3.44254 27.2555 1.86443 29.4405 1.86443C30.548 1.86443 31.3903 2.20786 32.3577 3.0358V0.64458C31.3379 0.193068 30.4956 0.00683594 29.4937 0.00683594C25.9682 0.00683594 23.1408 2.42875 23.1408 5.45618ZM51.2148 7.24023L48.0298 0.241801H45.4889L50.5543 10.9265H51.8057L56.9595 0.241673H54.4375L51.2148 7.24023ZM58.0175 10.6605H64.6189V8.89663H60.3431V6.08254H64.4552V4.31845H60.3431V2.00589H64.6189V0.241929H58.0174V10.6605H58.0175ZM73.8311 3.31656C73.8311 1.36482 72.2945 0.241801 69.609 0.241801H66.1553V10.6603H68.4837V6.47304H68.7884L72.0074 10.6603H74.8703L71.1105 6.27185C72.8665 5.95822 73.8311 4.91104 73.8311 3.31656ZM69.1609 5.03716H68.4837V1.88016H69.1981C70.6505 1.88016 71.4374 2.41289 71.4374 3.42681C71.4374 4.47271 70.6505 5.03716 69.1609 5.03716Z"
			fill="#161C24" />
	</g>
	<defs>
		<filter id="filter0_i_1_3196" x="33.2397" y="0.0466309" width="15.7092" height="13.8486"
			filterUnits="userSpaceOnUse" color-interpolation-filters="sRGB">
			<feFlood flood-opacity="0" result="BackgroundImageFix" />
			<feBlend mode="normal" in="SourceGraphic" in2="BackgroundImageFix" result="shape" />
			<feColorMatrix in="SourceAlpha" type="matrix"
				values="0 0 0 0 0 0 0 0 0 0 0 0 0 0 0 0 0 0 127 0" result="hardAlpha" />
			<feOffset dx="3" dy="3" />
			<feGaussianBlur stdDeviation="4" />
			<feComposite in2="hardAlpha" operator="arithmetic" k2="-1" k3="1" />
			<feColorMatrix type="matrix" values="0 0 0 0 0 0 0 0 0 0 0 0 0 0 0 0 0 0 0.5 0" />
			<feBlend mode="normal" in2="shape" result="effect1_innerShadow_1_3196" />
		</filter>
		<linearGradient id="paint0_linear_1_3196" x1="279.978" y1="98.3683" x2="1017.56" y2="990.533"
			gradientUnits="userSpaceOnUse">
			<stop stop-color="#F34F26" />
			<stop offset="1" stop-color="#F69E35" />
		</linearGradient>
		<clipPath id="clip0_1_3196">
			<rect width="75" height="11" fill="white" />
		</clipPath>
	</defs>
</svg>
	