<svg width="18" height="18" viewBox="0 0 18 18" fill="none" xmlns="http://www.w3.org/2000/svg">
	<path fill-rule="evenodd" clip-rule="evenodd"
		d="M12.495 3.4499L14.55 5.5049C15.1245 6.05222 15.148 6.96114 14.6025 7.5374L7.85248 14.2874C7.60801 14.5298 7.28758 14.6808 6.94498 14.7149L3.81748 14.9999H3.74998C3.55063 15.001 3.35902 14.9228 3.21748 14.7824C3.05926 14.6248 2.97953 14.4048 2.99998 14.1824L3.32248 11.0549C3.35661 10.7123 3.50756 10.3919 3.74998 10.1474L10.5 3.3974C11.0819 2.90581 11.9398 2.92839 12.495 3.4499ZM9.98998 5.9999L12 8.00989L13.5 6.5474L11.4525 4.4999L9.98998 5.9999Z"
		fill="#3366FF" />
</svg>
	