<svg width="12" height="12" viewBox="0 0 12 12" fill="none" xmlns="http://www.w3.org/2000/svg">
	<rect width="12" height="12" fill="white" />
	<path
		d="M7.30142 7.85815L4.69797 5.05619L1.22691 8.79191L2.52894 10.1926C2.87413 10.564 3.34225 10.7726 3.83036 10.7726C4.31846 10.7726 4.78658 10.564 5.13178 10.1926L7.30142 7.85815ZM6.4154 10.6793H8.0819C8.24463 10.6793 8.4007 10.7488 8.51577 10.8727C8.63084 10.9965 8.69549 11.1645 8.69549 11.3396C8.69549 11.5148 8.63084 11.6827 8.51577 11.8066C8.4007 11.9304 8.24463 12 8.0819 12H1.33245C1.17689 11.9999 1.02718 11.9361 0.91362 11.8217C0.800059 11.7073 0.731121 11.5507 0.720753 11.3836C0.710384 11.2166 0.759359 11.0515 0.857769 10.9219C0.95618 10.7922 1.09668 10.7076 1.25084 10.6852L0.3593 9.72568C0.12924 9.478 0 9.14213 0 8.79191C0 8.4417 0.12924 8.10582 0.3593 7.85815L7.30142 0.386696C7.53155 0.139095 7.84363 0 8.16903 0C8.49443 0 8.80651 0.139095 9.03664 0.386696L11.6407 3.18865C11.8708 3.43633 12 3.77221 12 4.12242C12 4.47263 11.8708 4.80851 11.6407 5.05619L6.4154 10.6793Z"
		fill="#3366FF" />
</svg>
	