<svg width="34" height="34" viewBox="0 0 34 34" fill="none" xmlns="http://www.w3.org/2000/svg">
	<g clip-path="url(#clip0_1_3187)">
		<path
			d="M6.1499 10.3817C5.1485 10.3818 4.16683 10.6655 3.31451 11.2011C2.4622 11.7368 1.77278 12.5033 1.32325 13.415C0.945026 14.1819 0.748047 15.0283 0.748047 15.8866C0.748047 16.7448 0.945026 17.5912 1.32325 18.3581C1.77278 19.2699 2.4622 20.0364 3.31451 20.572C4.16683 21.1077 5.1485 21.3914 6.1499 21.3914C7.60839 21.3914 8.83515 20.9025 9.73069 20.0623C10.7503 19.1039 11.3391 17.6873 11.3391 16.0123C11.3388 15.637 11.3069 15.2625 11.2437 14.8928H6.15126V17.0123H9.06824C9.00886 17.3508 8.88284 17.6736 8.69778 17.9613C8.51272 18.2489 8.27244 18.4954 7.99141 18.6859C7.50615 19.0206 6.88187 19.2123 6.15126 19.2123C4.74184 19.2123 3.54642 18.2442 3.11842 16.94C2.89237 16.2566 2.89237 15.5165 3.11842 14.8331C3.54642 13.5275 4.74184 12.5609 6.15126 12.5609C6.9214 12.548 7.6656 12.8444 8.22313 13.3859L9.76613 11.8164C8.78845 10.8801 7.49155 10.3659 6.1499 10.3817ZM15.0112 11.1456V20.7289H16.2189V16.847H18.2158C19.0378 16.847 19.7288 16.5748 20.2904 16.0303C20.57 15.775 20.7921 15.4611 20.9415 15.1101C21.0909 14.7592 21.164 14.3794 21.156 13.997C21.1617 13.6165 21.0874 13.2392 20.9381 12.8904C20.7888 12.5416 20.5679 12.2294 20.2904 11.9748C20.0156 11.7036 19.6908 11.4906 19.3347 11.348C18.9786 11.2054 18.5983 11.1362 18.2158 11.1442L15.0112 11.1456ZM18.3194 12.3261C18.5302 12.3299 18.7381 12.3767 18.9307 12.4638C19.1234 12.5508 19.297 12.6764 19.4412 12.8331C19.5948 12.9853 19.7169 13.1673 19.8002 13.3684C19.8836 13.5695 19.9265 13.7856 19.9265 14.0039C19.9265 14.2222 19.8836 14.4383 19.8002 14.6394C19.7169 14.8405 19.5948 15.0225 19.4412 15.1748C19.2868 15.3377 19.1008 15.4659 18.8949 15.5513C18.6891 15.6367 18.468 15.6773 18.2458 15.6706H16.2189V12.3261H18.2458C18.2703 12.3256 18.2949 12.3256 18.3194 12.3261ZM23.9407 13.9581C22.793 13.9581 21.9275 14.3859 21.3414 15.2428L22.4059 15.9248C22.7985 15.3456 23.3328 15.0553 24.0075 15.0553C24.438 15.0499 24.8546 15.2101 25.1743 15.5039C25.3317 15.6365 25.4581 15.8032 25.5444 15.9917C25.6307 16.1803 25.6747 16.3861 25.6732 16.5942V16.8748C25.2098 16.6067 24.6182 16.4734 23.9012 16.4734C23.0602 16.4734 22.3882 16.6748 21.8852 17.0761C21.3809 17.4761 21.1301 18.0164 21.1301 18.6942C21.1246 18.9992 21.186 19.3016 21.3098 19.5794C21.4336 19.8571 21.6167 20.1033 21.8457 20.2998C22.3228 20.7275 22.9157 20.9428 23.6245 20.9428C24.456 20.9428 25.1212 20.5678 25.6214 19.8178H25.6732V20.7275H26.8291V16.6873C26.8291 15.84 26.5701 15.1734 26.0549 14.6873C25.5369 14.2011 24.8335 13.9581 23.9407 13.9581ZM27.0254 14.172L29.6779 20.3136L28.1813 23.6192H29.4285L33.4618 14.1706H32.1464L30.2818 18.8803H30.2545L28.338 14.172H27.0254ZM24.1002 17.4609C24.7736 17.4609 25.2997 17.6136 25.6759 17.9192C25.6759 18.4359 25.4756 18.8859 25.0762 19.2706C24.7157 19.638 24.227 19.8447 23.7172 19.8456C23.3766 19.8522 23.0442 19.7383 22.7767 19.5234C22.6522 19.4316 22.551 19.3109 22.4816 19.1713C22.4121 19.0316 22.3763 18.8771 22.3773 18.7206C22.3773 18.3636 22.5409 18.0678 22.8721 17.822C23.1992 17.5817 23.6095 17.4609 24.1002 17.4609Z"
			fill="#3366FF" />
	</g>
	<defs>
		<clipPath id="clip0_1_3187">
			<rect width="32.7138" height="33.3333" fill="white" transform="translate(0.748047 0.333008)" />
		</clipPath>
	</defs>
</svg>
	