<svg width="179" height="33" viewBox="0 0 179 33" fill="none" xmlns="http://www.w3.org/2000/svg">
<path fill-rule="evenodd" clip-rule="evenodd" d="M59.8002 19.0411C59.8416 20.2746 59.9234 21.6257 61.5166 21.6257C62.7019 21.6257 63.2743 20.8043 63.2743 18.8357C63.2743 16.603 62.293 15.9863 59.7184 14.4291C58.6967 13.8123 56.3261 12.1079 56.3261 9.08285C56.3261 6.35023 57.7568 4 61.5983 4C65.5217 4 66.6666 6.3212 66.8715 8.28976L63.0703 8.64169C62.7846 6.46778 62.2122 6.46778 61.6397 6.46778C60.6584 6.46778 60.3727 7.37913 60.3727 8.81872C60.3727 10.2279 60.8219 10.9041 63.0703 12.2552C65.4813 13.7536 67.3208 15.1932 67.3208 18.3068C67.3208 20.7448 66.5848 24.0644 61.557 24.0644C56.8168 24.0644 56 21.215 56 19.3349L59.8002 19.0411ZM72.8778 20.8333C72.8778 21.2157 73.0414 21.9196 73.9409 21.9196C74.5941 21.9196 74.7981 21.3913 74.8809 20.9806C75.1262 20.0693 75.1262 17.7785 75.1262 16.7496C75.1262 15.6039 75.1262 13.7536 74.9213 12.6666C74.8395 12.1667 74.7173 11.3148 73.8591 11.3148C73.6128 11.3148 72.8778 11.4621 72.8778 12.6369V20.8333ZM69.2402 9.34769H72.5103V10.9622C72.7546 10.5217 73.4098 9.2004 75.2494 9.2004C78.6811 9.2004 78.9264 13.4894 78.9264 16.8084C78.9264 21.6264 78.15 24.0057 75.2898 24.0057C74.3498 24.0057 73.4493 23.7118 72.8778 23.1538V29H69.2402V9.34769ZM84.6479 20.657C84.7701 21.3913 84.974 21.979 85.7514 21.979C86.4864 21.979 86.6904 21.421 86.7318 21.2738C86.9771 20.3922 86.9771 17.161 86.9771 16.1328C86.9771 15.1634 86.9771 13.1658 86.7722 12.2842C86.6904 11.8438 86.4864 11.198 85.6687 11.198C84.8923 11.198 84.6883 11.7857 84.6065 12.1079C84.443 12.7842 84.443 15.4573 84.443 16.3389C84.443 17.3961 84.443 19.7166 84.6479 20.657ZM90.7783 16.5443C90.7783 22.1546 89.5112 24.0354 85.71 24.0354C81.9492 24.0354 80.6418 22.2141 80.6418 16.5435C80.6418 10.9041 82.1542 9.14162 85.71 9.14162C89.1841 9.14162 90.7783 10.8453 90.7783 16.5443ZM92.943 23.8293V9.34698H96.2535V11.227C96.7028 10.0232 97.7245 9.14162 99.3187 9.14162C99.565 9.14162 99.768 9.17066 100.013 9.2004V11.9323C96.5806 11.5797 96.5806 13.8711 96.5806 14.9581V23.8293H92.943ZM108.464 23.8293C107.884 23.969 107.276 24.0384 106.665 24.0347C102.946 24.0347 102.456 22.4783 102.456 19.9814V11.6682H100.82V9.34698H102.538V5.7632L106.012 5.55785V9.34698H108.096V11.6675H106.093V19.9807C106.093 21.1852 106.093 21.7142 107.361 21.7142C107.728 21.7142 108.178 21.6852 108.464 21.6561V23.8293ZM120.029 23.8293L118.149 13.636C117.944 12.5491 117.74 10.7866 117.578 9.46523C117.482 10.829 117.332 12.1906 117.128 13.5482L115.411 23.83H112.141L108.626 4.2358H112.345L113.613 13.4597C113.735 14.194 113.981 17.4252 114.062 18.0717C114.143 16.3679 114.307 14.6054 114.512 13.5185L115.901 4.23509H119.293L121.011 13.5482C121.174 14.4589 121.46 17.3373 121.582 18.2777C121.582 17.7785 121.582 17.6312 121.623 16.3679C121.747 14.2528 121.787 14.1643 121.827 13.5482L122.849 4.2358H126.323L123.176 23.8293H120.029ZM127.834 23.8293V9.34698H131.144V11.227C131.594 10.0232 132.616 9.14162 134.21 9.14162C134.455 9.14162 134.66 9.17066 134.905 9.2004V11.9323C131.472 11.5797 131.472 13.8711 131.472 14.9581V23.8293H127.834ZM142.056 15.1047C141.974 12.343 141.934 11.198 140.707 11.198C139.482 11.198 139.44 12.6369 139.359 15.1047H142.056ZM145.326 20.0112C145.121 22.1851 144.059 24.0354 140.912 24.0354C137.56 24.0354 135.721 22.6829 135.721 16.8672C135.721 14.6054 135.762 9.14162 140.83 9.14162C143.936 9.14162 145.04 11.1682 145.284 12.5491C145.53 13.5773 145.653 14.9581 145.653 17.2495H139.359C139.359 18.1304 139.359 19.7166 139.522 20.6272C139.604 21.0096 139.726 21.979 140.789 21.979C142.016 21.979 142.097 20.686 142.138 19.7464L145.326 20.0112ZM153.008 23.8293V13.1071C153.008 12.0789 153.008 11.3439 152.15 11.3439C151.619 11.3439 151.128 11.6384 151.006 12.5788V23.8293H147.327V9.34698H150.434V11.227C150.596 10.7568 151.252 9.14162 153.703 9.14162C156.646 9.14162 156.646 11.2568 156.646 12.8139V23.8293H153.008ZM168.211 19.3349C168.089 21.421 167.925 24.0354 163.635 24.0354C159.955 24.0354 158.729 22.0966 158.729 16.4855C158.729 11.6972 159.955 9.14162 163.675 9.14162C167.966 9.14162 168.089 12.491 168.128 13.6063L164.737 13.7833C164.697 11.6094 164.37 11.198 163.675 11.198C162.775 11.198 162.694 12.0789 162.612 12.8139C162.53 13.7826 162.53 15.5451 162.53 16.5443C162.53 17.719 162.53 20.3631 162.857 21.3616C162.939 21.6264 163.184 21.979 163.675 21.979C164.655 21.979 164.779 20.7158 164.86 19.2174L168.211 19.3349ZM175.362 23.8293V12.7544C175.362 11.933 175.24 11.3446 174.422 11.3446C173.81 11.3446 173.401 11.7269 173.279 12.3727V23.83H169.641V4.23509H173.279V10.6386C173.972 9.22943 175.526 9.14092 176.057 9.14092C176.712 9.14092 177.938 9.31723 178.551 10.2279C179 10.8737 179 11.637 179 12.7537V23.8286L175.362 23.8293Z" fill="#3366FF"/>
<path fill-rule="evenodd" clip-rule="evenodd" d="M19.8588 19.9193C17.0898 19.9193 14.8453 17.8815 14.8453 15.3665C14.8453 12.8519 17.0893 10.8137 19.8583 10.8137C22.6268 10.8137 24.8713 12.8519 24.8713 15.3661C24.8713 17.8811 22.6278 19.9193 19.8588 19.9193ZM39.4611 14.5316L31.2112 1.55195C31.2112 1.55195 30.7722 0.763822 29.9986 0.357524C29.226 -0.0491971 28.2452 0.00269778 28.2452 0.00269778L11.7487 0.00185396C11.7487 0.00185396 10.7777 -0.0470875 10.0033 0.357945C9.2297 0.762978 8.78554 1.56207 8.78554 1.56207L0.532896 14.5379C0.532896 14.5379 0.000930393 15.2771 1.1981e-06 16.0884C-0.000927997 16.8997 0.538936 17.6453 0.538936 17.6453L8.7874 30.6202C8.7874 30.6202 9.22598 31.4084 9.99907 31.8147C10.7722 32.2214 11.7576 32.1707 11.7576 32.1707H14.3974V26.1691C9.73053 24.2384 6.48439 19.9683 6.48439 15.0071C6.48439 10.5011 9.16233 6.56507 13.15 4.43401L14.1921 5.89508C14.1386 5.96976 14.1089 6.02208 14.1089 6.02208L9.7965 12.803C9.7965 12.803 9.51775 13.1891 9.51775 13.6131C9.51775 14.0371 9.79929 14.4269 9.79929 14.4269L14.1094 21.207C14.1094 21.207 14.3384 21.6192 14.7426 21.8314C15.1468 22.0441 15.6616 22.0175 15.6616 22.0175L24.285 22.0188C24.285 22.0188 24.7923 22.0441 25.197 21.8323C25.6012 21.6213 25.8321 21.2041 25.8321 21.2041L30.1426 14.424C30.1426 14.424 30.4209 14.0379 30.4214 13.6139C30.4214 13.1895 30.1398 12.7996 30.1398 12.7996L25.8284 6.01659C25.8284 6.01659 25.7536 5.8858 25.6179 5.73391L26.647 4.34203C30.7317 6.45074 33.4882 10.4352 33.4882 15.0071C33.4882 20.0282 30.1635 24.3422 25.4051 26.2383V32.172H28.2578C28.2578 32.172 29.2288 32.2214 30.0033 31.8163C30.7777 31.4113 31.2186 30.6139 31.2186 30.6139L39.4671 17.6398C39.4671 17.6398 39.9995 16.9006 40 16.0893C40.0014 15.2783 39.4611 14.5316 39.4611 14.5316Z" fill="#3366FF"/>
</svg>
