<svg width="36" height="24" viewBox="0 0 36 24" fill="none" xmlns="http://www.w3.org/2000/svg">
	<rect x="12.5686" y="3.27026" width="10.21" height="16.68" fill="#F26122" />
	<path
		d="M13.6687 11.6102C13.6518 8.3637 15.1264 5.28922 17.6687 3.27017C13.3189 -0.15054 7.07064 0.346185 3.31599 4.41117C-0.438663 8.47616 -0.438663 14.7442 3.31599 18.8092C7.07064 22.8741 13.3189 23.3709 17.6687 19.9502C15.1264 17.9311 13.6518 14.8566 13.6687 11.6102Z"
		fill="#FF4842" />
	<path
		d="M34.8287 11.6101C34.8261 15.6694 32.5076 19.3715 28.8566 21.1459C25.2056 22.9203 20.8622 22.4561 17.6687 19.9501C22.2688 16.328 23.0654 9.66439 19.4487 5.06009C18.9303 4.39336 18.3325 3.79227 17.6687 3.27009C20.8622 0.764088 25.2056 0.299837 28.8566 2.07427C32.5076 3.8487 34.8261 7.55075 34.8287 11.6101Z"
		fill="#F69E1E" />
</svg>
	