<svg width="222" height="221" viewBox="0 0 222 221" fill="none" xmlns="http://www.w3.org/2000/svg">
	<g clip-path="url(#clip0_1_3606)">
		<path
			d="M83.2745 0.657227H0.0898438V83.1572H83.2745V0.657227ZM69.4104 69.4072H13.954V14.4072H69.4104V69.4072Z"
			fill="#161C24" />
		<path
			d="M27.8181 28.1572H55.5463V55.6572H27.8181V28.1572ZM0.0898438 220.657H83.2745V138.157H0.0898438V220.657ZM13.954 151.907H69.4104V206.907H13.954V151.907Z"
			fill="#161C24" />
		<path
			d="M27.8184 165.657H55.5466V193.157H27.8184V165.657ZM138.731 0.657227V83.1572H221.916V0.657227H138.731ZM208.052 69.4072H152.595V14.4072H208.052V69.4072Z"
			fill="#161C24" />
		<path
			d="M166.459 28.1572H194.187V55.6572H166.459V28.1572ZM27.8181 96.9072H0.0898438V124.407H41.6822V110.657H27.8181V96.9072ZM97.1386 124.407H124.867V151.907H97.1386V124.407ZM41.6822 96.9072H69.4104V110.657H41.6822V96.9072ZM124.867 165.657H97.1386V179.407H111.003V193.157H124.867V179.407V165.657ZM83.2745 96.9072V110.657H69.4104V124.407H97.1386V96.9072H83.2745ZM111.003 55.6572H124.867V83.1572H111.003V55.6572ZM124.867 110.657V124.407H152.595V96.9072H111.003V110.657H124.867ZM97.1386 83.1572H111.003V96.9072H97.1386V83.1572ZM124.867 193.157H152.595V220.657H124.867V193.157ZM97.1386 193.157H111.003V220.657H97.1386V193.157ZM124.867 151.907H138.731V165.657H124.867V151.907ZM124.867 41.9072V14.4072H111.003V0.657227H97.1386V55.6572H111.003V41.9072H124.867ZM166.459 193.157H180.323V220.657H166.459V193.157ZM166.459 165.657H194.187V179.407H166.459V165.657ZM152.595 179.407H166.459V193.157H152.595V179.407ZM138.731 165.657H152.595V179.407H138.731V165.657ZM194.187 138.157V151.907H208.051V165.657H221.916V138.157H208.051H194.187ZM208.051 179.407H194.187V220.657H221.916V193.157H208.051V179.407ZM138.731 138.157V151.907H180.323V124.407H152.595V138.157H138.731ZM166.459 96.9072V110.657H194.187V124.407H221.916V96.9072H194.187H166.459Z"
			fill="#161C24" />
	</g>
	<defs>
		<clipPath id="clip0_1_3606">
			<rect width="221.826" height="220" fill="white" transform="translate(0.0898438 0.657227)" />
		</clipPath>
	</defs>
</svg>
	