<svg width="24" height="24" viewBox="0 0 24 24" fill="none" xmlns="http://www.w3.org/2000/svg">
	<g clip-path="url(#clip0_1_3457)">
		<path
			d="M3.73317 2.66675C3.45027 2.66675 3.17896 2.77913 2.97892 2.97917C2.77888 3.17921 2.6665 3.45052 2.6665 3.73341V8.00008H7.99984V2.66675H3.73317ZM6.6665 6.66675H3.99984V4.00008H6.6665V6.66675Z"
			fill="#3366FF" />
		<path
			d="M2.6665 20.2667C2.6665 20.5496 2.77888 20.8209 2.97892 21.0209C3.17896 21.221 3.45027 21.3333 3.73317 21.3333H7.99984V16H2.6665V20.2667ZM3.99984 17.3333H6.6665V20H3.99984V17.3333Z"
			fill="#3366FF" />
		<path
			d="M16 21.3333H20.2667C20.5496 21.3333 20.8209 21.221 21.0209 21.0209C21.221 20.8209 21.3333 20.5496 21.3333 20.2667V16H16V21.3333ZM17.3333 17.3333H20V20H17.3333V17.3333Z"
			fill="#3366FF" />
		<path
			d="M20.2667 2.66675H16V8.00008H21.3333V3.73341C21.3333 3.45052 21.221 3.17921 21.0209 2.97917C20.8209 2.77913 20.5496 2.66675 20.2667 2.66675ZM20 6.66675H17.3333V4.00008H20V6.66675Z"
			fill="#3366FF" />
		<path d="M13.3332 6.66659V5.33325H10.6665V7.99992H11.9998V6.66659H13.3332Z" fill="#3366FF" />
		<path d="M8 8H9.33333V9.33333H8V8Z" fill="#3366FF" />
		<path d="M9.3335 9.33325H12.0002V10.6666H9.3335V9.33325Z" fill="#3366FF" />
		<path d="M13.3335 4.00008V5.33341H14.6668V2.66675H9.3335V5.33341H10.6668V4.00008H13.3335Z"
			fill="#3366FF" />
		<path d="M2.6665 9.33325H3.99984V11.9999H2.6665V9.33325Z" fill="#3366FF" />
		<path
			d="M7.99984 10.6666V11.9999H6.6665V9.33325H5.33317V11.9999H3.99984V13.3333H2.6665V14.6666H5.33317V13.3333H6.6665V14.6666H7.99984V13.3333H9.33317V10.6666H7.99984Z"
			fill="#3366FF" />
		<path
			d="M13.3333 10.6667H14.6667V12.0001H16V10.6667H17.3333V9.33341H14.6667V6.66675H13.3333V8.00008H12V9.33341H13.3333V10.6667Z"
			fill="#3366FF" />
		<path d="M12.0002 20.0001H9.3335V21.3334H14.6668V20.0001H13.3335V18.6667H12.0002V20.0001Z"
			fill="#3366FF" />
		<path
			d="M14.6665 13.3334V12.0001H13.3332V10.6667H11.9998V12.0001H10.6665V13.3334H11.9998V14.6667H13.3332V13.3334H14.6665Z"
			fill="#3366FF" />
		<path d="M20 13.3333H21.3333V14.6666H20V13.3333Z" fill="#3366FF" />
		<path d="M14.6665 13.3333H18.6665V14.6666H14.6665V13.3333Z" fill="#3366FF" />
		<path
			d="M20.0002 9.33325H18.6668V10.6666H17.3335V11.9999H18.6668V13.3333H20.0002V11.9999H21.3335V10.6666H20.0002V9.33325Z"
			fill="#3366FF" />
		<path d="M13.3335 14.6667H14.6668V18.6667H13.3335V14.6667Z" fill="#3366FF" />
		<path d="M9.3335 18.6666H10.6668V17.3333H12.0002V15.9999H10.6668V13.3333H9.3335V18.6666Z"
			fill="#3366FF" />
	</g>
	<defs>
		<clipPath id="clip0_1_3457">
			<rect width="24" height="24" fill="white" />
		</clipPath>
	</defs>
</svg>
	