<svg width="24" height="24" viewBox="0 0 24 24" fill="none" xmlns="http://www.w3.org/2000/svg">
	<path
		d="M20 11C19.4477 11 19 11.4477 19 12V18C19 18.5523 18.5523 19 18 19H6C5.44772 19 5 18.5523 5 18V6C5 5.44772 5.44772 5 6 5H12C12.5523 5 13 4.55228 13 4C13 3.44772 12.5523 3 12 3H6C4.34315 3 3 4.34315 3 6V18C3 19.6569 4.34315 21 6 21H18C19.6569 21 21 19.6569 21 18V12C21 11.4477 20.5523 11 20 11Z"
		fill="#3366FF" />
	<path
		d="M15.9999 5H17.5799L11.2899 11.28C11.1006 11.4678 10.9941 11.7234 10.9941 11.99C10.9941 12.2566 11.1006 12.5122 11.2899 12.7C11.4777 12.8893 11.7333 12.9958 11.9999 12.9958C12.2666 12.9958 12.5222 12.8893 12.7099 12.7L18.9999 6.42V8C18.9999 8.55228 19.4477 9 19.9999 9C20.5522 9 20.9999 8.55228 20.9999 8V4C20.9999 3.44772 20.5522 3 19.9999 3H15.9999C15.4477 3 14.9999 3.44772 14.9999 4C14.9999 4.55228 15.4477 5 15.9999 5Z"
		fill="#3366FF" />
</svg>
	