<svg width="56" height="48" viewBox="0 0 56 48" fill="none" xmlns="http://www.w3.org/2000/svg">
	<path fill-rule="evenodd" clip-rule="evenodd"
		d="M44.333 36C44.9518 36 45.5453 35.7893 45.9829 35.4142C46.4205 35.0391 46.6663 34.5304 46.6663 34L46.6663 14C46.6663 13.4696 46.4205 12.9609 45.9829 12.5858C45.5453 12.2107 44.9518 12 44.333 12L27.603 12C27.1209 13.1711 26.227 14.1851 25.0443 14.9024C23.8616 15.6197 22.4485 16.0049 20.9997 16.0049C19.5509 16.0049 18.1378 15.6197 16.9551 14.9024C15.7724 14.1851 14.8784 13.1711 14.3963 12L11.6663 12C11.0475 12 10.454 12.2107 10.0164 12.5858C9.57884 12.9609 9.33301 13.4696 9.33301 14L9.33301 34C9.33301 34.5304 9.57885 35.0391 10.0164 35.4142C10.454 35.7893 11.0475 36 11.6663 36L14.3963 36C14.8784 34.8289 15.7724 33.8149 16.9551 33.0976C18.1378 32.3803 19.5509 31.9951 20.9997 31.9951C22.4485 31.9951 23.8616 32.3803 25.0443 33.0976C26.227 33.8149 27.1209 34.8289 27.603 36L44.333 36ZM51.333 34C51.333 35.5913 50.5955 37.1174 49.2828 38.2426C47.97 39.3679 46.1895 40 44.333 40L25.6663 40C25.0475 40 24.454 39.7893 24.0164 39.4142C23.5788 39.0391 23.333 38.5304 23.333 38C23.333 37.4696 23.0872 36.9609 22.6496 36.5858C22.212 36.2107 21.6185 36 20.9997 36C20.3808 36 19.7873 36.2107 19.3498 36.5858C18.9122 36.9609 18.6663 37.4696 18.6663 38C18.6663 38.5304 18.4205 39.0391 17.9829 39.4142C17.5453 39.7893 16.9519 40 16.333 40L11.6663 40C9.80983 40 8.02935 39.3679 6.7166 38.2426C5.40384 37.1174 4.66635 35.5913 4.66635 34L4.66635 14C4.66634 12.4087 5.40384 10.8826 6.7166 9.75736C8.02935 8.63214 9.80983 8 11.6663 8L16.333 8C16.9518 8 17.5453 8.21071 17.9829 8.58578C18.4205 8.96086 18.6663 9.46957 18.6663 10C18.6663 10.5304 18.9122 11.0391 19.3498 11.4142C19.7873 11.7893 20.3808 12 20.9997 12C21.6185 12 22.212 11.7893 22.6496 11.4142C23.0872 11.0391 23.333 10.5304 23.333 10C23.333 9.46956 23.5788 8.96086 24.0164 8.58578C24.454 8.21071 25.0475 8 25.6663 8L44.333 8C46.1895 8 47.97 8.63214 49.2828 9.75735C50.5955 10.8826 51.333 12.4087 51.333 14L51.333 34ZM20.9997 30C20.3808 30 19.7873 29.7893 19.3498 29.4142C18.9122 29.0391 18.6663 28.5304 18.6663 28L18.6663 27C18.6663 26.4696 18.9122 25.9609 19.3498 25.5858C19.7873 25.2107 20.3808 25 20.9997 25C21.6185 25 22.212 25.2107 22.6496 25.5858C23.0872 25.9609 23.333 26.4696 23.333 27L23.333 28C23.333 28.5304 23.0872 29.0391 22.6496 29.4142C22.212 29.7893 21.6185 30 20.9997 30ZM18.6663 21C18.6663 21.5304 18.9122 22.0391 19.3498 22.4142C19.7873 22.7893 20.3808 23 20.9997 23C21.6185 23 22.212 22.7893 22.6496 22.4142C23.0872 22.0391 23.333 21.5304 23.333 21L23.333 20C23.333 19.4696 23.0872 18.9609 22.6496 18.5858C22.212 18.2107 21.6185 18 20.9997 18C20.3808 18 19.7873 18.2107 19.3498 18.5858C18.9122 18.9609 18.6663 19.4696 18.6663 20L18.6663 21Z"
		fill="#3366FF" />
</svg>
	