<svg width="37" height="36" viewBox="0 0 37 36" fill="none" xmlns="http://www.w3.org/2000/svg">
	<path fill-rule="evenodd" clip-rule="evenodd"
		d="M27.7822 0.425293C33.0286 0.425293 36.4316 3.75138 36.4316 8.87911V27.4497C36.4316 32.5775 33.0286 35.9036 27.7822 35.9036H8.78214C3.53582 35.9036 0.132812 32.5775 0.132812 27.4497V8.87911C0.132812 3.75138 3.53582 0.425293 8.78214 0.425293H27.7822Z"
		fill="#161C24" />
	<path
		d="M29.7773 8.1123H6.78808C5.4516 8.1123 4.36816 9.17125 4.36816 10.4775V25.8514C4.36816 27.1577 5.4516 28.2167 6.78808 28.2167H29.7773C31.1138 28.2167 32.1972 27.1577 32.1972 25.8514V10.4775C32.1972 9.17125 31.1138 8.1123 29.7773 8.1123Z"
		fill="#D9D6CC" />
	<path d="M30.9873 8.99927H5.57812V21.4167H30.9873V8.99927Z" fill="#D8D8D8" />
	<mask id="mask0_1_3612" style="mask-type:alpha" maskUnits="userSpaceOnUse" x="5" y="8" width="26"
		height="14">
		<path d="M30.9863 8.99927H5.57715V21.4167H30.9863V8.99927Z" fill="white" />
	</mask>
	<g mask="url(#mask0_1_3612)">
		<path
			d="M29.4738 9.29492H7.0896C6.25429 9.29492 5.57715 9.95676 5.57715 10.7732V13.7297C5.57715 14.5461 6.25429 15.208 7.0896 15.208H29.4738C30.3091 15.208 30.9863 14.5461 30.9863 13.7297V10.7732C30.9863 9.95676 30.3091 9.29492 29.4738 9.29492Z"
			fill="#3EA3D6" />
		<g filter="url(#filter0_d_1_3612)">
			<path
				d="M29.4738 11.3645H7.0896C6.25429 11.3645 5.57715 12.0263 5.57715 12.8428V15.7993C5.57715 16.6157 6.25429 17.2775 7.0896 17.2775H29.4738C30.3091 17.2775 30.9863 16.6157 30.9863 15.7993V12.8428C30.9863 12.0263 30.3091 11.3645 29.4738 11.3645Z"
				fill="#FFB003" />
		</g>
		<g filter="url(#filter1_d_1_3612)">
			<path
				d="M29.4738 13.4341H7.0896C6.25429 13.4341 5.57715 14.0959 5.57715 14.9123V17.8689C5.57715 18.6853 6.25429 19.3471 7.0896 19.3471H29.4738C30.3091 19.3471 30.9863 18.6853 30.9863 17.8689V14.9123C30.9863 14.0959 30.3091 13.4341 29.4738 13.4341Z"
				fill="#50BE3D" />
		</g>
		<g filter="url(#filter2_d_1_3612)">
			<path
				d="M29.4738 15.5037H7.0896C6.25429 15.5037 5.57715 16.1655 5.57715 16.9819V19.9384C5.57715 20.7549 6.25429 21.4167 7.0896 21.4167H29.4738C30.3091 21.4167 30.9863 20.7549 30.9863 19.9384V16.9819C30.9863 16.1655 30.3091 15.5037 29.4738 15.5037Z"
				fill="#F26D5F" />
		</g>
	</g>
	<g filter="url(#filter3_d_1_3612)">
		<path fill-rule="evenodd" clip-rule="evenodd"
			d="M11.4595 17.5732H32.1972V25.8514C32.1972 27.1577 31.1149 28.2167 29.7762 28.2167H6.78914C5.45208 28.2167 4.36816 27.1571 4.36816 25.8514V17.5732H11.4595C11.4481 17.5732 11.4422 17.5734 11.4422 17.5734H18.2827V19.2861V20.9989C19.1573 21.0019 20.328 20.6928 20.9656 19.778C22.5406 17.5179 25.1232 17.5745 25.1232 17.5745H18.2827V19.2861V20.9978C17.4081 21.0007 16.2373 20.6916 15.5998 19.7769C14.1 17.6246 11.6864 17.5732 11.4595 17.5732Z"
			fill="#D9D6CC" />
	</g>
	<defs>
		<filter id="filter0_d_1_3612" x="1.57715" y="7.8645" width="33.4092" height="13.9131"
			filterUnits="userSpaceOnUse" color-interpolation-filters="sRGB">
			<feFlood flood-opacity="0" result="BackgroundImageFix" />
			<feColorMatrix in="SourceAlpha" type="matrix"
				values="0 0 0 0 0 0 0 0 0 0 0 0 0 0 0 0 0 0 127 0" result="hardAlpha" />
			<feOffset dy="0.5" />
			<feGaussianBlur stdDeviation="2" />
			<feColorMatrix type="matrix" values="0 0 0 0 0 0 0 0 0 0 0 0 0 0 0 0 0 0 0.39 0" />
			<feBlend mode="normal" in2="BackgroundImageFix" result="effect1_dropShadow_1_3612" />
			<feBlend mode="normal" in="SourceGraphic" in2="effect1_dropShadow_1_3612" result="shape" />
		</filter>
		<filter id="filter1_d_1_3612" x="1.57715" y="9.93408" width="33.4092" height="13.9131"
			filterUnits="userSpaceOnUse" color-interpolation-filters="sRGB">
			<feFlood flood-opacity="0" result="BackgroundImageFix" />
			<feColorMatrix in="SourceAlpha" type="matrix"
				values="0 0 0 0 0 0 0 0 0 0 0 0 0 0 0 0 0 0 127 0" result="hardAlpha" />
			<feOffset dy="0.5" />
			<feGaussianBlur stdDeviation="2" />
			<feColorMatrix type="matrix" values="0 0 0 0 0 0 0 0 0 0 0 0 0 0 0 0 0 0 0.39 0" />
			<feBlend mode="normal" in2="BackgroundImageFix" result="effect1_dropShadow_1_3612" />
			<feBlend mode="normal" in="SourceGraphic" in2="effect1_dropShadow_1_3612" result="shape" />
		</filter>
		<filter id="filter2_d_1_3612" x="1.57715" y="12.0037" width="33.4092" height="13.9131"
			filterUnits="userSpaceOnUse" color-interpolation-filters="sRGB">
			<feFlood flood-opacity="0" result="BackgroundImageFix" />
			<feColorMatrix in="SourceAlpha" type="matrix"
				values="0 0 0 0 0 0 0 0 0 0 0 0 0 0 0 0 0 0 127 0" result="hardAlpha" />
			<feOffset dy="0.5" />
			<feGaussianBlur stdDeviation="2" />
			<feColorMatrix type="matrix" values="0 0 0 0 0 0 0 0 0 0 0 0 0 0 0 0 0 0 0.393314 0" />
			<feBlend mode="normal" in2="BackgroundImageFix" result="effect1_dropShadow_1_3612" />
			<feBlend mode="normal" in="SourceGraphic" in2="effect1_dropShadow_1_3612" result="shape" />
		</filter>
		<filter id="filter3_d_1_3612" x="2.36816" y="15.0732" width="31.8291" height="14.6436"
			filterUnits="userSpaceOnUse" color-interpolation-filters="sRGB">
			<feFlood flood-opacity="0" result="BackgroundImageFix" />
			<feColorMatrix in="SourceAlpha" type="matrix"
				values="0 0 0 0 0 0 0 0 0 0 0 0 0 0 0 0 0 0 127 0" result="hardAlpha" />
			<feOffset dy="-0.5" />
			<feGaussianBlur stdDeviation="1" />
			<feColorMatrix type="matrix" values="0 0 0 0 0 0 0 0 0 0 0 0 0 0 0 0 0 0 0.139634 0" />
			<feBlend mode="normal" in2="BackgroundImageFix" result="effect1_dropShadow_1_3612" />
			<feBlend mode="normal" in="SourceGraphic" in2="effect1_dropShadow_1_3612" result="shape" />
		</filter>
	</defs>
</svg>
	